<?xml version="1.0" encoding="utf-8"?>
<!-- Generator: Adobe Illustrator 15.0.0, SVG Export Plug-In . SVG Version: 6.00 Build 0)  -->
<!DOCTYPE svg PUBLIC "-//W3C//DTD SVG 1.1//EN" "http://www.w3.org/Graphics/SVG/1.1/DTD/svg11.dtd">
<svg version="1.1" id="Layer_1" xmlns="http://www.w3.org/2000/svg" xmlns:xlink="http://www.w3.org/1999/xlink" x="0px" y="0px"
	 width="676px" height="245.5px" viewBox="0 0 676 245.5" enable-background="new 0 0 676 245.5" xml:space="preserve">
<g>
	<defs>
		<rect id="SVGID_1_" width="676" height="245.5"/>
	</defs>
	<clipPath id="SVGID_2_">
		<use xlink:href="#SVGID_1_"  overflow="visible"/>
	</clipPath>
	<path clip-path="url(#SVGID_2_)" fill="#FFFFFF" d="M534.011,46.163C528.122,39.729,519.975,36,511.068,36H74.067
		c-17.243,0-32.51,14.159-34.033,31.335L29.653,184.568c-0.787,8.871,2.023,17.16,7.912,23.593
		C43.453,214.596,51.601,218,60.507,218h437.001c17.243,0,32.51-13.788,34.032-30.965l10.383-117.139
		C542.709,61.026,539.899,52.597,534.011,46.163"/>
	<path clip-path="url(#SVGID_2_)" fill="#231F20" d="M511.068,50.872c9.9,0,17.285,8.068,16.411,17.93l-10.383,117.14
		c-0.874,9.861-9.688,17.931-19.589,17.931H60.506c-9.9,0-17.285-8.069-16.411-17.931l10.382-117.14
		c0.874-9.862,9.69-17.93,19.59-17.93H511.068 M511.068,38.872H74.067c-7.795,0-15.353,2.988-21.282,8.415
		c-5.928,5.426-9.573,12.691-10.261,20.455l-10.382,117.14c-0.713,8.046,1.936,16,7.267,21.824c5.33,5.824,13.02,9.166,21.097,9.166
		h437.001c7.795,0,15.353-2.989,21.281-8.416s9.572-12.69,10.261-20.455l10.383-117.14c0.713-8.045-1.936-16-7.267-21.824
		C526.835,42.211,519.146,38.872,511.068,38.872"/>
	<polygon clip-path="url(#SVGID_2_)" fill="none" stroke="#FFFFFF" stroke-width="5" points="101.871,51.387 89.556,189.137 
		65.162,189.137 77.477,51.387 30.979,51.387 33.033,24.906 150.309,24.906 148.253,51.387 	"/>
	<path clip-path="url(#SVGID_2_)" fill="none" stroke="#FFFFFF" stroke-width="5" d="M112.703,189.137l10.491-119.909h24.394
		l-1.272,14.545c3.358-6.108,7.408-10.517,12.152-13.228c4.741-2.71,10.09-4.066,16.046-4.066c7.939,0,14.448,2.405,19.525,7.216
		l-5.524,22.562c-2.082-1.527-4.578-2.882-7.49-4.066c-2.913-1.183-6.544-1.776-10.896-1.776c-2.749,0-5.596,0.478-8.543,1.432
		c-2.947,0.956-5.71,2.634-8.286,5.039c-2.578,2.406-4.806,5.612-6.683,9.621c-1.878,4.007-3.087,9.105-3.628,15.289l-5.892,67.341
		H112.703z"/>
	<polygon clip-path="url(#SVGID_2_)" fill="none" stroke="#FFFFFF" stroke-width="5" points="190.876,189.137 201.367,69.228 
		225.761,69.228 215.27,189.137 	"/>
	<polygon clip-path="url(#SVGID_2_)" fill="#231F20" points="101.871,51.387 89.556,189.137 65.162,189.137 77.477,51.387 
		30.979,51.387 33.033,24.906 150.309,24.906 148.253,51.387 	"/>
	<path clip-path="url(#SVGID_2_)" fill="#231F20" d="M112.703,189.137l10.491-119.909h24.394l-1.272,14.545
		c3.358-6.108,7.408-10.517,12.152-13.228c4.741-2.71,10.09-4.066,16.046-4.066c7.939,0,14.448,2.405,19.525,7.216l-5.524,22.562
		c-2.082-1.527-4.578-2.882-7.49-4.066c-2.913-1.183-6.544-1.776-10.896-1.776c-2.749,0-5.596,0.478-8.543,1.432
		c-2.947,0.956-5.71,2.634-8.286,5.039c-2.578,2.406-4.806,5.612-6.683,9.621c-1.878,4.007-3.087,9.105-3.628,15.289l-5.892,67.341
		H112.703z"/>
	<polygon clip-path="url(#SVGID_2_)" fill="#231F20" points="190.876,189.137 201.367,69.228 225.761,69.228 215.27,189.137 	"/>
	<polygon clip-path="url(#SVGID_2_)" points="326.249,87.862 292.526,87.862 283.678,189.004 259.776,189.004 268.625,87.862 
		235.067,87.862 236.686,69.375 327.865,69.375 	"/>
	<path clip-path="url(#SVGID_2_)" d="M377.494,163.205h-41.825l-10.36,25.799h-24.147l51.474-119.629h24.473l30.377,119.629h-24.145
		L377.494,163.205z M343.209,144.389h30.039l-10.621-46.997h-0.492L343.209,144.389z"/>
	<path clip-path="url(#SVGID_2_)" d="M501.482,172.654c-3.959,4.711-9.852,8.9-17.676,12.57s-17.465,5.504-28.924,5.504
		c-14.568,0-26.068-4.545-34.492-13.639c-8.429-9.092-12.006-20.896-10.734-35.411l2.184-24.979
		c1.266-14.46,6.73-26.25,16.396-35.37c9.664-9.12,21.48-13.68,35.451-13.68c14.514,0,25.322,3.547,32.422,10.639
		c7.1,7.094,10.228,16.42,9.381,27.977l-0.207,0.493h-22.51c0.119-6.354-1.459-11.38-4.736-15.077
		c-3.277-3.697-8.383-5.546-15.312-5.546c-7.312,0-13.453,2.832-18.422,8.497c-4.971,5.664-7.846,12.953-8.627,21.874l-2.197,25.118
		c-0.795,9.086,0.879,16.459,5.021,22.123s10.143,8.494,18,8.494c5.566,0,10.09-0.572,13.574-1.721
		c3.482-1.145,6.172-2.564,8.066-4.26l1.936-22.119h-21.117l1.451-16.597h45.02L501.482,172.654z"/>
	<polygon clip-path="url(#SVGID_2_)" points="326.249,87.862 292.526,87.862 283.678,189.004 259.776,189.004 268.625,87.862 
		235.067,87.862 236.686,69.375 327.865,69.375 	"/>
	<path clip-path="url(#SVGID_2_)" d="M377.494,163.205h-41.825l-10.36,25.799h-24.147l51.474-119.629h24.473l30.377,119.629h-24.145
		L377.494,163.205z M343.209,144.389h30.039l-10.621-46.997h-0.492L343.209,144.389z"/>
	<path clip-path="url(#SVGID_2_)" d="M501.482,172.654c-3.959,4.711-9.852,8.9-17.676,12.57s-17.465,5.504-28.924,5.504
		c-14.568,0-26.068-4.545-34.492-13.639c-8.429-9.092-12.006-20.896-10.734-35.411l2.184-24.979
		c1.266-14.46,6.73-26.25,16.396-35.37c9.664-9.12,21.48-13.68,35.451-13.68c14.514,0,25.322,3.547,32.422,10.639
		c7.1,7.094,10.228,16.42,9.381,27.977l-0.207,0.493h-22.51c0.119-6.354-1.459-11.38-4.736-15.077
		c-3.277-3.697-8.383-5.546-15.312-5.546c-7.312,0-13.453,2.832-18.422,8.497c-4.971,5.664-7.846,12.953-8.627,21.874l-2.197,25.118
		c-0.795,9.086,0.879,16.459,5.021,22.123s10.143,8.494,18,8.494c5.566,0,10.09-0.572,13.574-1.721
		c3.482-1.145,6.172-2.564,8.066-4.26l1.936-22.119h-21.117l1.451-16.597h45.02L501.482,172.654z"/>
	<g clip-path="url(#SVGID_2_)">
		<defs>
			<rect id="SVGID_3_" x="505.531" y="159.701" width="36.543" height="36.539"/>
		</defs>
		<clipPath id="SVGID_4_">
			<use xlink:href="#SVGID_3_"  overflow="visible"/>
		</clipPath>
		<path clip-path="url(#SVGID_4_)" fill="#FFFFFF" d="M505.531,177.974c0,10.09,8.181,18.267,18.273,18.267
			c10.09,0,18.27-8.177,18.27-18.267c0-10.093-8.18-18.272-18.27-18.272C513.712,159.701,505.531,167.881,505.531,177.974"/>
		<path clip-path="url(#SVGID_4_)" d="M523.729,169.281c4.789,0,8.692,3.898,8.692,8.692c0,4.788-3.903,8.691-8.692,8.691
			c-4.793,0-8.693-3.903-8.693-8.691C515.036,173.18,518.937,169.281,523.729,169.281 M523.729,162.326
			c-8.642,0-15.647,7.002-15.647,15.647c0,8.638,7.006,15.647,15.647,15.647c8.64,0,15.644-7.01,15.644-15.647
			C539.373,169.328,532.369,162.326,523.729,162.326"/>
	</g>
	<path clip-path="url(#SVGID_2_)" d="M574.733,183.714c4.353,0,8.299-1.236,11.843-3.714c3.544-2.477,5.511-5.92,5.896-10.326h5.813
		l0.081,0.329c-0.298,5.486-2.893,10.074-7.786,13.766c-4.894,3.694-10.339,5.541-16.335,5.541c-8.082,0-14.083-2.769-18.005-8.31
		c-3.921-5.539-5.5-12.661-4.738-21.362l0.201-2.305c0.755-8.629,3.587-15.722,8.497-21.28c4.911-5.558,11.37-8.338,19.379-8.338
		c6.508,0,11.761,1.92,15.758,5.76c3.997,3.839,5.648,8.886,4.956,15.139l-0.14,0.329h-5.868c0.417-4.754-0.852-8.549-3.802-11.382
		c-2.953-2.833-6.751-4.251-11.396-4.251c-6.361,0-11.268,2.274-14.721,6.822c-3.449,4.547-5.477,10.272-6.081,17.175l-0.201,2.303
		c-0.613,7.014,0.399,12.782,3.038,17.312C563.762,181.451,568.299,183.714,574.733,183.714"/>
	<path clip-path="url(#SVGID_2_)" d="M645.588,188.156c-0.264-2.009-0.422-3.746-0.478-5.21c-0.055-1.46-0.016-2.941,0.115-4.442
		c-2.465,3.108-5.617,5.686-9.453,7.732c-3.836,2.049-8.038,3.073-12.608,3.073c-5.778,0-10.132-1.536-13.062-4.608
		c-2.932-3.07-4.172-7.184-3.72-12.34c0.478-5.486,3.229-9.872,8.254-13.165c5.021-3.29,11.556-4.934,19.601-4.934h13.109
		l0.644-7.351c0.37-4.241-0.701-7.569-3.214-9.982c-2.513-2.412-6.22-3.619-11.119-3.619c-4.571,0-8.464,1.151-11.683,3.455
		c-3.219,2.303-4.973,5.119-5.264,8.446l-6.029-0.055l-0.08-0.329c0.167-4.423,2.533-8.383,7.1-11.874
		c4.563-3.492,10.138-5.239,16.719-5.239c6.545,0,11.667,1.665,15.359,4.991c3.694,3.328,5.271,8.1,4.727,14.315l-2.553,29.179
		c-0.182,2.086-0.242,4.115-0.176,6.089c0.065,1.974,0.286,3.931,0.667,5.867H645.588z M624.439,183.496
		c4.718,0,8.982-1.105,12.796-3.318c3.813-2.214,6.676-5.037,8.584-8.476l1.085-12.394h-13.218c-5.961,0-10.835,1.271-14.621,3.812
		c-3.788,2.541-5.846,5.695-6.175,9.461c-0.282,3.218,0.594,5.841,2.629,7.87C617.555,182.481,620.527,183.496,624.439,183.496"/>
	<g clip-path="url(#SVGID_2_)">
		<defs>
			<rect id="SVGID_5_" x="196.109" y="27.228" width="36.543" height="36.539"/>
		</defs>
		<clipPath id="SVGID_6_">
			<use xlink:href="#SVGID_5_"  overflow="visible"/>
		</clipPath>
		<path clip-path="url(#SVGID_6_)" fill="#FFFFFF" d="M196.109,45.5c0,10.09,8.181,18.267,18.273,18.267
			c10.09,0,18.27-8.177,18.27-18.267c0-10.093-8.18-18.272-18.27-18.272C204.291,27.228,196.109,35.407,196.109,45.5"/>
		<path clip-path="url(#SVGID_6_)" d="M214.308,36.808c4.789,0,8.692,3.898,8.692,8.692c0,4.789-3.903,8.692-8.692,8.692
			c-4.793,0-8.693-3.903-8.693-8.692C205.615,40.706,209.515,36.808,214.308,36.808 M214.308,29.853
			c-8.642,0-15.647,7.002-15.647,15.647c0,8.638,7.005,15.648,15.647,15.648c8.64,0,15.644-7.01,15.644-15.648
			C229.952,36.854,222.948,29.853,214.308,29.853"/>
	</g>
</g>
</svg>
